<?xml version="1.0" encoding="UTF-8" standalone="no"?>
<svg
   version="1.0"
   width="1280.000000pt"
   height="640.000000pt"
   viewBox="0 0 1280.000000 640.000000"
   preserveAspectRatio="xMidYMid meet"
   id="svg20"
   sodipodi:docname="ferris_with_must.svg"
   inkscape:version="1.2 (dc2aedaf03, 2022-05-15)"
   xml:space="preserve"
   xmlns:inkscape="http://www.inkscape.org/namespaces/inkscape"
   xmlns:sodipodi="http://sodipodi.sourceforge.net/DTD/sodipodi-0.dtd"
   xmlns="http://www.w3.org/2000/svg"
   xmlns:svg="http://www.w3.org/2000/svg"><defs
     id="defs24">
        
        
        
        
        
        
        
        
        
    </defs><sodipodi:namedview
     id="namedview22"
     pagecolor="#ffffff"
     bordercolor="#666666"
     borderopacity="1.0"
     inkscape:showpageshadow="2"
     inkscape:pageopacity="0.0"
     inkscape:pagecheckerboard="0"
     inkscape:deskcolor="#d1d1d1"
     inkscape:document-units="pt"
     showgrid="false"
     inkscape:zoom="0.88359375"
     inkscape:cx="853.8992"
     inkscape:cy="426.66667"
     inkscape:window-width="3840"
     inkscape:window-height="2054"
     inkscape:window-x="-11"
     inkscape:window-y="-11"
     inkscape:window-maximized="1"
     inkscape:current-layer="svg20" /><metadata
     id="metadata14">
Created by potrace 1.15, written by Peter Selinger 2001-2017
</metadata><g
     transform="matrix(1.0733185,0,0,0.88018268,1081.8234,417.20914)"
     id="g235"
     style="clip-rule:evenodd;fill-rule:evenodd;stroke-linejoin:round;stroke-miterlimit:1.41421">
            <path
   d="m 0,-7.203 -12.072,-25.006 c 0.063,-0.947 0.111,-1.898 0.111,-2.853 0,-28.346 -29.478,-54.471 -79.069,-75.389 v 17.393 c -4.836,-1.919 -9.871,-3.787 -15.117,-5.593 v -8.108 c -70.874,-25.56 -176.383,-41.778 -294.241,-41.778 -102.973,0 -196.529,12.38 -265.791,32.554 v 28.246 h -0.002 v -34.188 c -70.96,22.55 -114.954,53.877 -114.954,88.515 0,5.46 1.101,10.838 3.217,16.113 l -7.228,12.867 c 0,0 -5.792,7.512 4.406,23.362 8.994,13.977 54.048,68.685 77.827,97.335 10.214,14.687 17.141,23.734 17.746,22.859 0.955,-1.386 -6.351,-28.961 -26.635,-60.423 -9.466,-16.895 -20.768,-39.283 -27.554,-55.819 18.942,11.99 130.23,68.029 357.232,67.801 231.994,-0.232 335.115,-72.851 346.433,-82.737 -3.955,15.889 -17.468,48.033 -28.245,70.638 -17.706,32.331 -24.12,60.478 -23.296,61.87 0.524,0.878 6.565,-8.441 15.476,-23.543 C -51.025,87.37 -11.739,30.974 -3.889,16.608 5.007,0.323 0,-7.203 0,-7.203"
   style="fill:#a52b00;fill-rule:nonzero"
   id="path233" />
        </g><g
     transform="matrix(1.0733185,0,0,0.88018268,1157.0523,227.08619)"
     id="g239"
     style="clip-rule:evenodd;fill-rule:evenodd;stroke-linejoin:round;stroke-miterlimit:1.41421">
            <path
   d="m 0,204.135 -79.343,-58.446 c -0.745,-2.6 -1.49,-5.201 -2.26,-7.781 l 26.062,-37.754 c 2.66,-3.84 3.196,-8.832 1.469,-13.211 -1.731,-4.358 -5.515,-7.482 -9.99,-8.247 l -44.066,-7.479 c -1.709,-3.485 -3.498,-6.916 -5.294,-10.319 L -94.907,18.51 c 1.903,-4.317 1.505,-9.335 -1.022,-13.254 -2.517,-3.937 -6.786,-6.237 -11.338,-6.058 l -44.724,1.625 c -2.315,-3.016 -4.667,-6.003 -7.067,-8.937 l 10.278,-45.432 c 1.042,-4.612 -0.274,-9.443 -3.487,-12.794 -3.195,-3.339 -7.838,-4.722 -12.253,-3.639 l -43.562,10.709 c -2.82,-2.493 -5.688,-4.953 -8.588,-7.365 l 1.567,-46.641 c 0.168,-4.721 -2.033,-9.208 -5.812,-11.829 -3.777,-2.636 -8.57,-3.032 -12.701,-1.074 l -40.638,19.321 c -3.273,-1.878 -6.565,-3.737 -9.892,-5.537 l -7.181,-45.961 c -0.729,-4.656 -3.724,-8.612 -7.919,-10.418 -4.185,-1.817 -8.976,-1.228 -12.648,1.536 l -36.232,27.185 c -3.569,-1.185 -7.153,-2.32 -10.779,-3.407 l -15.617,-43.585 c -1.588,-4.443 -5.25,-7.706 -9.716,-8.624 -4.45,-0.909 -9.028,0.632 -12.114,4.08 l -30.499,34.119 c -3.685,-0.423 -7.377,-0.81 -11.076,-1.131 l -23.549,-39.676 c -2.384,-4.018 -6.597,-6.464 -11.139,-6.464 -4.529,0 -8.75,2.446 -11.118,6.464 l -23.555,39.676 c -3.701,0.321 -7.408,0.708 -11.088,1.131 l -30.499,-34.119 c -3.09,-3.448 -7.684,-4.989 -12.122,-4.08 -4.46,0.93 -8.128,4.181 -9.707,8.624 l -15.629,43.585 c -3.621,1.087 -7.205,2.23 -10.78,3.407 l -36.22,-27.185 c -3.683,-2.774 -8.478,-3.361 -12.668,-1.536 -4.181,1.806 -7.188,5.762 -7.913,10.418 l -7.186,45.961 c -3.322,1.8 -6.614,3.649 -9.895,5.537 l -40.634,-19.321 c -4.127,-1.966 -8.945,-1.562 -12.704,1.074 -3.773,2.621 -5.98,7.108 -5.81,11.829 l 1.562,46.641 c -2.894,2.412 -5.756,4.872 -8.591,7.365 l -43.554,-10.709 c -4.423,-1.074 -9.062,0.3 -12.265,3.639 -3.221,3.351 -4.526,8.182 -3.491,12.794 l 10.257,45.432 c -2.378,2.945 -4.733,5.921 -7.042,8.937 l -44.724,-1.625 c -4.513,-0.135 -8.821,2.121 -11.343,6.058 -2.527,3.919 -2.91,8.937 -1.029,13.254 l 18.528,42.388 c -1.799,3.403 -3.586,6.834 -5.309,10.319 l -44.063,7.479 c -4.479,0.754 -8.252,3.876 -9.994,8.247 -1.728,4.379 -1.167,9.371 1.474,13.211 l 26.066,37.754 c -0.201,0.667 -0.387,1.339 -0.587,2.008 l -73.696,78.285 c 0,0 -11.296,8.851 5.147,29.654 14.5,18.351 88.951,91.096 128.271,129.205 16.606,19.348 27.984,31.329 29.172,30.293 1.876,-1.645 -7.972,-36.847 -40.682,-78.149 -25.216,-37.056 -57.941,-94.049 -50.267,-100.618 0,0 8.729,-11.081 26.242,-19.057 0.641,0.512 -0.662,-0.507 0,0 0,0 369.595,170.491 712.429,2.884 39.164,-7.025 62.873,13.955 62.873,13.955 8.176,4.74 -12.996,63.344 -30.407,102.137 -23.679,44.05 -27.151,78.422 -25.144,79.614 1.268,0.757 9.883,-12.353 22.172,-33.217 C -67.814,332.649 -10.492,252.1 0,232.534 11.895,210.352 0,204.135 0,204.135"
   style="fill:#f74c00;fill-rule:nonzero"
   id="path237" />
        </g><g
     transform="matrix(1.0733185,0,0,0.88018268,983.61043,182.89574)"
     id="g243"
     style="clip-rule:evenodd;fill-rule:evenodd;stroke-linejoin:round;stroke-miterlimit:1.41421">
            <path
   d="m 0,232.466 c 0,0 53.179,-2.466 123.032,-73.462 l 9.898,-21.979 c 0,0 -108.417,-107.848 60.118,-182.291 0,0 -14.755,24.112 -10.426,117.272 0,0 50.815,-17.649 65.714,-99.94 0,0 74.12,97.724 -80.502,189.377 0,0 -72.54,116.289 -174.805,105.15 z"
   style="fill:#f74c00;fill-rule:nonzero"
   id="path241" />
        </g><g
     transform="matrix(1.0733185,0,0,0.88018268,707.04908,370.38041)"
     id="g247"
     style="clip-rule:evenodd;fill-rule:evenodd;stroke-linejoin:round;stroke-miterlimit:1.41421">
            <path
   d="m 0,-78.192 c 0,0 36.935,-40.443 73.871,0 0,0 29.022,53.927 0,80.887 0,0 -47.487,37.748 -73.871,0 0,0 -31.658,-29.659 0,-80.887"
   style="fill-rule:nonzero"
   id="path245" />
        </g><g
     transform="matrix(1.0733185,0,0,0.88018268,752.94848,314.75991)"
     id="g251"
     style="clip-rule:evenodd;fill-rule:evenodd;stroke-linejoin:round;stroke-miterlimit:1.41421">
            <path
   d="m 0,0.004 c 0,15.746 -9.282,28.514 -20.732,28.514 -11.448,0 -20.73,-12.768 -20.73,-28.514 0,-15.75 9.282,-28.518 20.73,-28.518 C -9.282,-28.514 0,-15.746 0,0.004"
   style="fill:#ffffff;fill-rule:nonzero"
   id="path249" />
        </g><g
     transform="matrix(1.0733185,0,0,0.88018268,530.11361,365.42938)"
     id="g255"
     style="clip-rule:evenodd;fill-rule:evenodd;stroke-linejoin:round;stroke-miterlimit:1.41421">
            <path
   d="m 0,-83.609 c 0,0 63.355,-28.052 80.648,34.562 0,0 18.114,72.98 -52.03,77.099 0,0 -89.444,-17.228 -28.618,-111.661"
   style="fill-rule:nonzero"
   id="path253" />
        </g><g
     transform="matrix(1.0733185,0,0,0.88018268,564.2666,315.6709)"
     id="g259"
     style="clip-rule:evenodd;fill-rule:evenodd;stroke-linejoin:round;stroke-miterlimit:1.41421">
            <path
   d="m 0,0.002 c 0,16.239 -9.572,29.409 -21.381,29.409 -11.804,0 -21.379,-13.17 -21.379,-29.409 0,-16.244 9.575,-29.411 21.379,-29.411 C -9.572,-29.409 0,-16.242 0,0.002"
   style="fill:#ffffff;fill-rule:nonzero"
   id="path257" />
        </g><g
     transform="matrix(1.0733185,0,0,0.88018268,287.99273,205.86762)"
     id="g267"
     style="clip-rule:evenodd;fill-rule:evenodd;stroke-linejoin:round;stroke-miterlimit:1.41421">
            <path
   d="m 0,190.741 c -0.667,0 -1.321,0.049 -1.973,0.101 -26.234,-5.971 -99.973,-25.185 -119.464,-56.363 0,0 99.227,-112.872 -55.86,-185.019 l 18.057,124.878 c 0,0 -47.809,-31.949 -58.126,-101.346 0,0 -116.423,84.494 51.384,165.474 0,0 15.22,57.187 161.349,102.815 l 0.107,-0.435 c 1.471,0.272 2.977,0.435 4.526,0.435 13.808,0 25.003,-11.312 25.003,-25.271 0,-13.956 -11.195,-25.269 -25.003,-25.269"
   style="fill:#f74c00;fill-rule:nonzero"
   id="path265" />
        </g><path
     d="m 610.98628,404.03439 c -9.74716,1.01089 -14.1809,1.89541 -21.64083,4.29629 -6.93211,2.24292 -16.0459,7.01307 -23.22432,12.13072 -6.19315,4.42265 -15.86995,13.58388 -27.09503,25.55664 -13.89941,14.84749 -21.53528,21.54465 -30.01568,26.25163 -7.81181,4.35947 -15.58844,6.98148 -25.23005,8.56099 -4.96156,0.78976 -14.8143,0.72658 -19.56474,-0.15794 -9.07859,-1.64271 -14.67354,-4.42266 -16.89041,-8.33987 -2.6743,-4.73856 -2.46317,-10.64597 0.52783,-14.56318 2.14649,-2.81155 6.54504,-5.2756 9.3953,-5.2756 2.99101,0 5.24305,2.49564 6.33389,7.01308 0.35189,1.35838 0.77416,2.46404 0.9501,2.46404 0.63338,0 0,-6.60239 -0.84452,-9.00326 -2.70951,-7.83442 -9.00822,-9.47712 -19.24805,-5.02288 -5.52456,2.40087 -8.90264,6.22331 -10.69724,12.03595 -0.98528,3.19063 -1.05566,10.67756 -0.14077,14.24727 3.94111,15.8268 17.13673,27.95751 37.89787,34.90741 21.71122,7.29738 49.08776,7.73964 87.23195,1.45316 9.92311,-1.64271 16.2922,-3.03269 24.4559,-5.37037 23.08357,-6.63399 45.42818,-17.05883 61.33332,-28.62092 4.04666,-2.93791 9.95831,-8.24509 11.85847,-10.61437 0.77415,-0.97931 1.51311,-1.76906 1.61867,-1.80065 0.10554,0 0.77414,0.75816 1.5131,1.70587 1.68904,2.21133 8.69152,8.40306 12.87893,11.40414 18.54427,13.26797 47.75061,25.74618 72.66397,31.08497 9.50085,2.02178 26.2857,4.51742 37.12372,5.52831 21.35933,1.9902 40.07954,1.13726 54.61233,-2.52723 24.94855,-6.2549 41.10001,-19.45969 45.53375,-37.15032 0.91489,-3.56971 0.84451,-11.05664 -0.14076,-14.24727 -1.79461,-5.81264 -5.17269,-9.63508 -10.69725,-12.03595 -4.29299,-1.86383 -7.14325,-2.52723 -10.3102,-2.33769 -2.77988,0.15796 -4.08185,0.6634 -5.77089,2.21133 -2.46319,2.24292 -3.83553,5.81263 -4.15222,10.74074 -0.24633,4.07516 0.21112,4.48583 1.09083,0.94772 1.47791,-6.16013 4.78562,-8.2451 9.71198,-6.19173 8.09333,3.38018 10.83802,11.78323 6.29872,19.42811 -3.13176,5.27559 -13.44195,8.59258 -26.70796,8.62417 -12.42149,0 -23.75215,-2.9695 -34.80129,-9.12962 -7.77663,-4.32789 -16.46815,-11.87799 -28.88964,-25.11437 -18.86096,-20.0915 -27.72843,-27.64162 -39.79804,-33.86493 -18.43869,-9.5403 -41.31113,-12.03595 -58.55342,-6.34967 -6.93212,2.3061 -12.80858,5.78105 -18.12202,10.74074 l -3.51883,3.25382 -3.51884,-3.25382 c -9.92311,-9.25599 -23.08357,-13.93137 -38.70719,-13.74182 -2.04094,0 -4.15223,0.0948 -4.75044,0.12636 z"
     id="path16"
     style="fill:#000000;stroke:none;stroke-width:0.0333405"
     inkscape:transform-center-x="-0.29868236"
     inkscape:transform-center-y="-76.99975" /></svg>
