<?xml version="1.0" encoding="UTF-8" standalone="no"?>
<svg
   version="1.0"
   width="1280.000000pt"
   height="640.000000pt"
   viewBox="0 0 1280.000000 640.000000"
   preserveAspectRatio="xMidYMid meet"
   id="svg20"
   sodipodi:docname="473661.svg"
   inkscape:version="1.2 (dc2aedaf03, 2022-05-15)"
   xmlns:inkscape="http://www.inkscape.org/namespaces/inkscape"
   xmlns:sodipodi="http://sodipodi.sourceforge.net/DTD/sodipodi-0.dtd"
   xmlns="http://www.w3.org/2000/svg"
   xmlns:svg="http://www.w3.org/2000/svg">
  <defs
     id="defs24" />
  <sodipodi:namedview
     id="namedview22"
     pagecolor="#ffffff"
     bordercolor="#666666"
     borderopacity="1.0"
     inkscape:showpageshadow="2"
     inkscape:pageopacity="0.0"
     inkscape:pagecheckerboard="0"
     inkscape:deskcolor="#d1d1d1"
     inkscape:document-units="pt"
     showgrid="false"
     inkscape:zoom="0.88359375"
     inkscape:cx="853.8992"
     inkscape:cy="426.66667"
     inkscape:window-width="3840"
     inkscape:window-height="2054"
     inkscape:window-x="-11"
     inkscape:window-y="-11"
     inkscape:window-maximized="1"
     inkscape:current-layer="svg20" />
  <metadata
     id="metadata14">
Created by potrace 1.15, written by Peter Selinger 2001-2017
</metadata>
  <path
     d="m 506.5,92.060907 c -27.7,3.83339 -40.3,7.187606 -61.5,16.291903 -19.7,8.50534 -45.6,26.59415 -66,46.00068 -17.6,16.77108 -45.1,51.51118 -77,96.91289 -39.5,56.30291 -61.2,81.69911 -85.3,99.54834 -22.2,16.53149 -44.3,26.47434 -71.7,32.46401 -14.1,2.99483 -42.1,2.75526 -55.6,-0.59897 -25.8,-6.22925 -41.7,-16.77107 -48,-31.62546 -7.6,-17.96901 -7,-40.37039 1.5,-55.22477 6.1,-10.66161 18.6,-20.0055 26.7,-20.0055 8.5,0 14.9,9.46368 18,26.59414 1,5.15112 2.2,9.34388 2.7,9.34388 1.8,0 0,-25.03681 -2.4,-34.14112 -7.7,-29.70878 -25.6,-35.93803 -54.7,-19.04716 -15.7,9.1043 -25.3,23.59932 -30.4,45.6413 -2.8,12.09913 -3,40.49017 -0.4,54.02684 11.2,60.01651 48.7,106.01718 107.7,132.37174 61.7,27.67228 139.5,29.34939 247.9,5.5105 28.2,-6.22926 46.3,-11.50017 69.5,-20.36489 65.6,-25.15662 129.1,-64.68845 174.3,-108.53285 11.5,-11.14078 28.3,-31.26608 33.7,-40.25059 2.2,-3.71359 4.3,-6.70843 4.6,-6.82822 0.3,0 2.2,2.87504 4.3,6.46884 4.8,8.38554 24.7,31.86506 36.6,43.24544 52.7,50.31323 135.7,97.63164 206.5,117.87673 27,7.66678 74.7,17.13046 105.5,20.96385 60.7,7.54698 113.9,4.31256 155.2,-9.58348 70.9,-23.7191 116.8,-73.79275 129.4,-140.87707 2.6,-13.53667 2.4,-41.92771 -0.4,-54.02684 -5.1,-22.04198 -14.7,-36.537 -30.4,-45.6413 -12.2,-7.06781 -20.3,-9.58347 -29.3,-8.86471 -7.9,0.59897 -11.6,2.51566 -16.4,8.38554 -7,8.50533 -10.9,22.04199 -11.8,40.72977 -0.7,15.45335 0.6,17.01066 3.1,3.5938 4.2,-23.35972 13.6,-31.26609 27.6,-23.47951 23,12.8179 30.8,44.68295 17.9,73.67297 -8.9,20.00548 -38.2,32.58379 -75.9,32.70359 -35.3,0 -67.5,-11.26059 -98.9,-34.6203 C 1041,334.28322 1016.3,305.65259 981,255.45914 927.4,179.27053 902.2,150.63989 867.9,127.04059 815.5,90.862974 750.5,81.399292 701.5,102.96211 c -19.7,8.74492 -36.4,21.9222 -51.5,40.72977 L 640,156.0306 630,143.69188 C 601.8,108.5924 564.4,90.862974 520,91.581734 c -5.8,0 -11.8,0.359381 -13.5,0.479173 z"
     id="path16"
     style="fill:#000000;stroke:none;stroke-width:0.109449"
     inkscape:transform-center-x="-0.84880637"
     inkscape:transform-center-y="-291.98939" />
</svg>
